<mxfile host="app.diagrams.net" agent="Mozilla/5.0 (Windows NT 10.0; Win64; x64) AppleWebKit/537.36 (KHTML, like Gecko) Chrome/131.0.0.0 Safari/537.36" version="24.8.6">
  <diagram name="Trang-1" id="LwPPLO4Ee-6Tbe8ZKP9Q">
    <mxGraphModel dx="1235" dy="669" grid="1" gridSize="10" guides="1" tooltips="1" connect="1" arrows="1" fold="1" page="1" pageScale="1" pageWidth="827" pageHeight="1169" math="0" shadow="0">
      <root>
        <mxCell id="0" />
        <mxCell id="1" parent="0" />
        <mxCell id="qwp_WOEQlL5NrjCQHLM8-1" value="&lt;font style=&quot;font-size: 15px;&quot;&gt;Customer&lt;/font&gt;" style="shape=umlActor;verticalLabelPosition=bottom;verticalAlign=top;html=1;outlineConnect=0;" vertex="1" parent="1">
          <mxGeometry x="70" y="150" width="30" height="60" as="geometry" />
        </mxCell>
        <mxCell id="qwp_WOEQlL5NrjCQHLM8-3" value="" style="rounded=0;whiteSpace=wrap;html=1;" vertex="1" parent="1">
          <mxGeometry x="240" y="120" width="620" height="570" as="geometry" />
        </mxCell>
        <mxCell id="qwp_WOEQlL5NrjCQHLM8-4" value="&lt;span style=&quot;font-size: 18px;&quot;&gt;Website Fast Food&lt;/span&gt;" style="text;html=1;align=center;verticalAlign=middle;whiteSpace=wrap;rounded=0;" vertex="1" parent="1">
          <mxGeometry x="381" y="50" width="178" height="30" as="geometry" />
        </mxCell>
        <mxCell id="qwp_WOEQlL5NrjCQHLM8-7" value="Account" style="ellipse;whiteSpace=wrap;html=1;" vertex="1" parent="1">
          <mxGeometry x="270" y="150" width="120" height="80" as="geometry" />
        </mxCell>
        <mxCell id="qwp_WOEQlL5NrjCQHLM8-8" style="rounded=0;orthogonalLoop=1;jettySize=auto;html=1;exitX=0.5;exitY=0.5;exitDx=0;exitDy=0;exitPerimeter=0;endArrow=none;endFill=0;" edge="1" parent="1" source="qwp_WOEQlL5NrjCQHLM8-1" target="qwp_WOEQlL5NrjCQHLM8-7">
          <mxGeometry relative="1" as="geometry" />
        </mxCell>
        <mxCell id="qwp_WOEQlL5NrjCQHLM8-9" value="&lt;font style=&quot;font-size: 13px;&quot;&gt;Create&lt;/font&gt;" style="edgeLabel;html=1;align=center;verticalAlign=middle;resizable=0;points=[];" vertex="1" connectable="0" parent="qwp_WOEQlL5NrjCQHLM8-8">
          <mxGeometry x="0.0852" y="1" relative="1" as="geometry">
            <mxPoint x="1" as="offset" />
          </mxGeometry>
        </mxCell>
      </root>
    </mxGraphModel>
  </diagram>
</mxfile>
